<svg xmlns="http://www.w3.org/2000/svg" xmlns:xlink="http://www.w3.org/1999/xlink" preserveAspectRatio="xMidYMid" width="955" height="526" viewBox="0 0 955 526">
  <defs>    
  
    <style>

      .cls-3 {
        fill: #162655;
        stroke: #ffffff;
        stroke-linejoin: round;
        stroke-width: 1px;
        filter: url(#color-overlay-1);
      }
      #lg:hover path{
      fill:#fff !important;
      }
      .cls-5 {
        stroke: #ffffff;
        stroke-linejoin: round;
        stroke-width: 1px;
        filter: url(#color-overlay-3);
        fill: none;
        transition:all 300ms;
      }
    </style>

    <filter id="color-overlay-1" filterUnits="userSpaceOnUse">
      <feFlood flood-color="#ffffff" flood-opacity="0.24"/>
      <feComposite operator="in" in2="SourceGraphic"/>
      <feBlend mode="normal" in2="SourceGraphic" result="colorOverlay"/>
    </filter>
    <filter id="color-overlay-3" filterUnits="userSpaceOnUse">
      <feFlood flood-color="#ffffff" flood-opacity="0.11"/>
      <feComposite operator="in" in2="SourceGraphic"/>
      <feBlend mode="normal" in2="SourceGraphic" result="colorOverlay"/>
    </filter>
  </defs>
  <g id="sectionssvg">
    <g id="lg" style="fill: #162655; filter: url(#color-overlay-1);">
      <path d="M368.500,113.500 C368.500,113.500 855.500,295.500 855.500,295.500 C855.500,295.500 624.500,525.500 624.500,525.500 C624.500,525.500 2.500,252.500 2.500,252.500 C2.500,252.500 269.500,80.500 269.500,80.500 C269.500,80.500 284.500,85.500 284.500,85.500 " id="path-1" class="cls-3" style="stroke: inherit; filter: none; fill: inherit;" fill-rule="evenodd"/>
    </g>
    <use xlink:href="#path-1" style="stroke: #ffffff; fill: none; filter: none;"/>
    <g id="md" style="fill: #162655; filter: url(#color-overlay-1);">
      <path d="M373.500,13.500 C373.500,13.500 952.500,199.500 952.500,199.500 C952.500,199.500 854.500,295.500 854.500,295.500 C854.500,295.500 259.500,86.500 259.500,86.500 C259.500,86.500 373.500,13.500 373.500,13.500 Z" id="path-2" class="cls-3" style="stroke: inherit; filter: none; fill: inherit;" fill-rule="evenodd"/>
    </g>
    <use xlink:href="#path-2" style="stroke: #ffffff; fill: none; filter: none;"/>
    <g id="s15" style="fill: none; filter: url(#color-overlay-3);">
      <path d="M412.500,0.500 C412.500,0.500 494.500,27.500 494.500,27.500 C494.500,27.500 470.500,46.500 470.500,46.500 C470.500,46.500 388.500,18.500 388.500,18.500 C388.500,18.500 412.500,0.500 412.500,0.500 Z" id="path-3" class="cls-5" style="stroke: inherit; filter: none; fill: inherit;" fill-rule="evenodd"/>
    </g>
    <use xlink:href="#path-3" style="stroke: #ffffff; fill: none; filter: none;"/>
    <g id="s6" style="fill: none; filter: url(#color-overlay-3);">
      <path d="M373.500,12.500 C373.500,12.500 455.500,40.500 455.500,40.500 C455.500,40.500 421.500,63.500 421.500,63.500 C421.500,63.500 338.500,35.500 338.500,35.500 C338.500,35.500 373.500,12.500 373.500,12.500 Z" id="path-4" class="cls-5" style="stroke: inherit; filter: none; fill: inherit;" fill-rule="evenodd"/>
    </g>
    <use xlink:href="#path-4" style="stroke: #ffffff; fill: none; filter: none;"/>
    <g id="s5" style="fill: none; filter: url(#color-overlay-3);">
      <path d="M316.500,48.500 C316.500,48.500 400.500,77.500 400.500,77.500 C400.500,77.500 365.500,100.500 365.500,100.500 C365.500,100.500 281.500,71.500 281.500,71.500 C281.500,71.500 316.500,48.500 316.500,48.500 Z" id="path-5" class="cls-5" style="stroke: inherit; filter: none; fill: inherit;" fill-rule="evenodd"/>
    </g>
    <use xlink:href="#path-5" style="stroke: #ffffff; fill: none; filter: none;"/>
    <g id="s4" style="fill: none; filter: url(#color-overlay-3);">
      <path d="M258.500,86.500 C258.500,86.500 342.500,115.500 342.500,115.500 C342.500,115.500 307.500,138.500 307.500,138.500 C307.500,138.500 223.500,109.500 223.500,109.500 C223.500,109.500 258.500,86.500 258.500,86.500 Z" id="path-6" class="cls-5" style="stroke: inherit; filter: none; fill: inherit;" fill-rule="evenodd"/>
    </g>
    <use xlink:href="#path-6" style="stroke: #ffffff; fill: none; filter: none;"/>
    <g id="s3" style="fill: none; filter: url(#color-overlay-3);">
      <path d="M180.500,136.500 C180.500,136.500 235.500,156.500 235.500,156.500 C235.500,156.500 200.500,179.500 200.500,179.500 C200.500,179.500 145.500,159.500 145.500,159.500 C145.500,159.500 180.500,136.500 180.500,136.500 Z" id="path-7" class="cls-5" style="stroke: inherit; filter: none; fill: inherit;" fill-rule="evenodd"/>
    </g>
    <use xlink:href="#path-7" style="stroke: #ffffff; fill: none; filter: none;"/>
    <g id="s2" style="fill: none; filter: url(#color-overlay-3);">
      <path d="M107.500,182.500 C107.500,182.500 163.500,204.500 163.500,204.500 C163.500,204.500 128.500,227.500 128.500,227.500 C128.500,227.500 72.500,205.500 72.500,205.500 C72.500,205.500 107.500,182.500 107.500,182.500 Z" id="path-8" class="cls-5" style="stroke: inherit; filter: none; fill: inherit;" fill-rule="evenodd"/>
    </g>
    <use xlink:href="#path-8" style="stroke: #ffffff; fill: none; filter: none;"/>
    <g id="s1" style="fill: none; filter: url(#color-overlay-3);">
      <path d="M35.500,230.500 C35.500,230.500 93.500,254.500 93.500,254.500 C93.500,254.500 58.500,277.500 58.500,277.500 C58.500,277.500 0.500,253.500 0.500,253.500 C0.500,253.500 35.500,230.500 35.500,230.500 Z" id="path-9" class="cls-5" style="stroke: inherit; filter: none; fill: inherit;" fill-rule="evenodd"/>
    </g>
    <use xlink:href="#path-9" style="stroke: #ffffff; fill: none; filter: none;"/>
    <g id="s7" style="fill: none; filter: url(#color-overlay-3);">
      <path d="M245.500,288.500 C245.500,288.500 580.500,434.500 580.500,434.500 C580.500,434.500 523.500,482.500 523.500,482.500 C523.500,482.500 182.500,335.500 182.500,335.500 C182.500,335.500 245.500,288.500 245.500,288.500 Z" id="path-10" class="cls-5" style="stroke: inherit; filter: none; fill: inherit;" fill-rule="evenodd"/>
    </g>
    <use xlink:href="#path-10" style="stroke: #ffffff; fill: none; filter: none;"/>
    <g id="s8" style="fill: none; filter: url(#color-overlay-3);">
      <path d="M341.500,203.500 C341.500,203.500 559.500,287.500 559.500,287.500 C559.500,287.500 496.500,339.500 496.500,339.500 C496.500,339.500 278.500,250.500 278.500,250.500 C278.500,250.500 341.500,203.500 341.500,203.500 Z" id="path-11" class="cls-5" style="stroke: inherit; filter: none; fill: inherit;" fill-rule="evenodd"/>
    </g>
    <use xlink:href="#path-11" style="stroke: #ffffff; fill: none; filter: none;"/>
    <g id="s12" style="fill: none; filter: url(#color-overlay-3);">
      <path d="M566.500,76.500 C566.500,76.500 719.500,124.500 719.500,124.500 C719.500,124.500 687.500,150.500 687.500,150.500 C687.500,150.500 533.500,99.500 533.500,99.500 C533.500,99.500 566.500,76.500 566.500,76.500 Z" id="path-12" class="cls-5" style="stroke: inherit; filter: none; fill: inherit;" fill-rule="evenodd"/>
    </g>
    <use xlink:href="#path-12" style="stroke: #ffffff; fill: none; filter: none;"/>
    <g id="s9" style="fill: none; filter: url(#color-overlay-3);">
      <path d="M413.500,139.500 C413.500,139.500 571.500,195.500 571.500,195.500 C571.500,195.500 540.500,220.500 540.500,220.500 C540.500,220.500 380.500,162.500 380.500,162.500 C380.500,162.500 413.500,139.500 413.500,139.500 Z" id="path-13" class="cls-5" style="stroke: inherit; filter: none; fill: inherit;" fill-rule="evenodd"/>
    </g>
    <use xlink:href="#path-13" style="stroke: #ffffff; fill: none; filter: none;"/>
    <g id="s11" style="fill: none; filter: url(#color-overlay-3);">
      <path d="M579.500,143.500 C579.500,143.500 675.500,175.500 675.500,175.500 C675.500,175.500 643.500,201.500 643.500,201.500 C643.500,201.500 546.500,168.500 546.500,168.500 C546.500,168.500 579.500,143.500 579.500,143.500 Z" id="path-14" class="cls-5" style="stroke: inherit; filter: none; fill: inherit;" fill-rule="evenodd"/>
    </g>
    <use xlink:href="#path-14" style="stroke: #ffffff; fill: none; filter: none;"/>
    <g id="s10" style="fill: none; filter: url(#color-overlay-3);">
      <path d="M463.500,101.500 C463.500,101.500 556.500,134.500 556.500,134.500 C556.500,134.500 522.500,159.500 522.500,159.500 C522.500,159.500 426.500,126.500 426.500,126.500 C426.500,126.500 463.500,101.500 463.500,101.500 Z" id="path-15" class="cls-5" style="stroke: inherit; filter: none; fill: inherit;" fill-rule="evenodd"/>
    </g>
    <use xlink:href="#path-15" style="stroke: #ffffff; fill: none; filter: none;"/>
    <g id="s14" style="fill: none; filter: url(#color-overlay-3);">
      <path d="M840.500,162.500 C840.500,162.500 954.500,198.500 954.500,198.500 C954.500,198.500 924.500,226.500 924.500,226.500 C924.500,226.500 810.500,189.500 810.500,189.500 C810.500,189.500 840.500,162.500 840.500,162.500 Z" id="path-16" class="cls-5" style="stroke: inherit; filter: none; fill: inherit;" fill-rule="evenodd"/>
    </g>
    <use xlink:href="#path-16" style="stroke: #ffffff; fill: none; filter: none;"/>
    <g id="s13" style="fill: none; filter: url(#color-overlay-3);">
      <path d="M785.500,213.500 C785.500,213.500 899.500,252.500 899.500,252.500 C899.500,252.500 869.500,280.500 869.500,280.500 C869.500,280.500 753.500,240.500 753.500,240.500 C753.500,240.500 785.500,213.500 785.500,213.500 Z" id="path-17" class="cls-5" style="stroke: inherit; filter: none; fill: inherit;" fill-rule="evenodd"/>
    </g>
    <use xlink:href="#path-17" style="stroke: #ffffff; fill: none; filter: none;"/>
  </g>
</svg>
